<svg width="392" height="401" viewBox="0 0 392 401" fill="none" xmlns="http://www.w3.org/2000/svg">
<path fill-rule="evenodd" clip-rule="evenodd" d="M140.757 90.8968C125.147 76.8524 77.9272 71.627 47.5393 108.458C14.2687 148.784 26.862 211.981 77.5471 248.536C110.138 272.04 136.433 289.782 159.843 326.658C172.403 346.446 268.962 362.76 322.738 299.233C376.513 235.707 345.57 121.807 277.104 119.022C185.656 115.3 167.519 114.976 140.757 90.8968Z" fill="#E33E54"/>
<path d="M57.3932 109.241C58.7411 109.241 59.8338 108.148 59.8338 106.8C59.8338 105.453 58.7411 104.36 57.3932 104.36C56.0453 104.36 54.9526 105.453 54.9526 106.8C54.9526 108.148 56.0453 109.241 57.3932 109.241Z" fill="black"/>
<path d="M72.8815 109.241C74.2294 109.241 75.3221 108.148 75.3221 106.8C75.3221 105.453 74.2294 104.36 72.8815 104.36C71.5336 104.36 70.4409 105.453 70.4409 106.8C70.4409 108.148 71.5336 109.241 72.8815 109.241Z" fill="black"/>
<path d="M88.3698 109.241C89.7177 109.241 90.8104 108.148 90.8104 106.8C90.8104 105.453 89.7177 104.36 88.3698 104.36C87.0219 104.36 85.9292 105.453 85.9292 106.8C85.9292 108.148 87.0219 109.241 88.3698 109.241Z" fill="black"/>
<path d="M57.3932 90.9835C58.7411 90.9835 59.8338 89.8908 59.8338 88.5429C59.8338 87.195 58.7411 86.1023 57.3932 86.1023C56.0453 86.1023 54.9526 87.195 54.9526 88.5429C54.9526 89.8908 56.0453 90.9835 57.3932 90.9835Z" fill="black"/>
<path d="M72.8815 90.9835C74.2294 90.9835 75.3221 89.8908 75.3221 88.5429C75.3221 87.195 74.2294 86.1023 72.8815 86.1023C71.5336 86.1023 70.4409 87.195 70.4409 88.5429C70.4409 89.8908 71.5336 90.9835 72.8815 90.9835Z" fill="black"/>
<path d="M88.3698 90.9835C89.7177 90.9835 90.8104 89.8908 90.8104 88.5429C90.8104 87.195 89.7177 86.1023 88.3698 86.1023C87.0219 86.1023 85.9292 87.195 85.9292 88.5429C85.9292 89.8908 87.0219 90.9835 88.3698 90.9835Z" fill="black"/>
<path d="M57.3932 75.0258C58.7411 75.0258 59.8338 73.9331 59.8338 72.5852C59.8338 71.2373 58.7411 70.1446 57.3932 70.1446C56.0453 70.1446 54.9526 71.2373 54.9526 72.5852C54.9526 73.9331 56.0453 75.0258 57.3932 75.0258Z" fill="black"/>
<path d="M72.8815 75.0258C74.2294 75.0258 75.3221 73.9331 75.3221 72.5852C75.3221 71.2373 74.2294 70.1446 72.8815 70.1446C71.5336 70.1446 70.4409 71.2373 70.4409 72.5852C70.4409 73.9331 71.5336 75.0258 72.8815 75.0258Z" fill="black"/>
<path d="M88.3698 75.0258C89.7177 75.0258 90.8104 73.9331 90.8104 72.5852C90.8104 71.2373 89.7177 70.1446 88.3698 70.1446C87.0219 70.1446 85.9292 71.2373 85.9292 72.5852C85.9292 73.9331 87.0219 75.0258 88.3698 75.0258Z" fill="black"/>
<path d="M57.3932 127.98C58.7411 127.98 59.8338 126.887 59.8338 125.539C59.8338 124.192 58.7411 123.099 57.3932 123.099C56.0453 123.099 54.9526 124.192 54.9526 125.539C54.9526 126.887 56.0453 127.98 57.3932 127.98Z" fill="black"/>
<path d="M72.8815 127.98C74.2294 127.98 75.3221 126.887 75.3221 125.539C75.3221 124.192 74.2294 123.099 72.8815 123.099C71.5336 123.099 70.4409 124.192 70.4409 125.539C70.4409 126.887 71.5336 127.98 72.8815 127.98Z" fill="black"/>
<path d="M88.3698 127.98C89.7177 127.98 90.8104 126.887 90.8104 125.539C90.8104 124.192 89.7177 123.099 88.3698 123.099C87.0219 123.099 85.9292 124.192 85.9292 125.539C85.9292 126.887 87.0219 127.98 88.3698 127.98Z" fill="black"/>
<path d="M57.3932 56.7683C58.7411 56.7683 59.8338 55.6756 59.8338 54.3277C59.8338 52.9798 58.7411 51.8871 57.3932 51.8871C56.0453 51.8871 54.9526 52.9798 54.9526 54.3277C54.9526 55.6756 56.0453 56.7683 57.3932 56.7683Z" fill="black"/>
<path d="M72.8815 56.7683C74.2294 56.7683 75.3221 55.6756 75.3221 54.3277C75.3221 52.9798 74.2294 51.8871 72.8815 51.8871C71.5336 51.8871 70.4409 52.9798 70.4409 54.3277C70.4409 55.6756 71.5336 56.7683 72.8815 56.7683Z" fill="black"/>
<path d="M88.3698 56.7683C89.7177 56.7683 90.8104 55.6756 90.8104 54.3277C90.8104 52.9798 89.7177 51.8871 88.3698 51.8871C87.0219 51.8871 85.9292 52.9798 85.9292 54.3277C85.9292 55.6756 87.0219 56.7683 88.3698 56.7683Z" fill="black"/>
<path d="M332.441 229.354C333.788 229.354 334.881 228.261 334.881 226.913C334.881 225.565 333.788 224.473 332.441 224.473C331.093 224.473 330 225.565 330 226.913C330 228.261 331.093 229.354 332.441 229.354Z" fill="black"/>
<path d="M347.929 229.354C349.277 229.354 350.369 228.261 350.369 226.913C350.369 225.565 349.277 224.473 347.929 224.473C346.581 224.473 345.488 225.565 345.488 226.913C345.488 228.261 346.581 229.354 347.929 229.354Z" fill="black"/>
<path d="M363.417 229.354C364.765 229.354 365.858 228.261 365.858 226.913C365.858 225.565 364.765 224.473 363.417 224.473C362.069 224.473 360.977 225.565 360.977 226.913C360.977 228.261 362.069 229.354 363.417 229.354Z" fill="black"/>
<path d="M332.441 211.096C333.788 211.096 334.881 210.004 334.881 208.656C334.881 207.308 333.788 206.215 332.441 206.215C331.093 206.215 330 207.308 330 208.656C330 210.004 331.093 211.096 332.441 211.096Z" fill="black"/>
<path d="M347.929 211.096C349.277 211.096 350.369 210.004 350.369 208.656C350.369 207.308 349.277 206.215 347.929 206.215C346.581 206.215 345.488 207.308 345.488 208.656C345.488 210.004 346.581 211.096 347.929 211.096Z" fill="black"/>
<path d="M363.417 211.096C364.765 211.096 365.858 210.004 365.858 208.656C365.858 207.308 364.765 206.215 363.417 206.215C362.069 206.215 360.977 207.308 360.977 208.656C360.977 210.004 362.069 211.096 363.417 211.096Z" fill="black"/>
<path d="M332.441 195.139C333.788 195.139 334.881 194.046 334.881 192.698C334.881 191.35 333.788 190.258 332.441 190.258C331.093 190.258 330 191.35 330 192.698C330 194.046 331.093 195.139 332.441 195.139Z" fill="black"/>
<path d="M347.929 195.139C349.277 195.139 350.369 194.046 350.369 192.698C350.369 191.35 349.277 190.258 347.929 190.258C346.581 190.258 345.488 191.35 345.488 192.698C345.488 194.046 346.581 195.139 347.929 195.139Z" fill="black"/>
<path d="M363.417 195.139C364.765 195.139 365.858 194.046 365.858 192.698C365.858 191.35 364.765 190.258 363.417 190.258C362.069 190.258 360.977 191.35 360.977 192.698C360.977 194.046 362.069 195.139 363.417 195.139Z" fill="black"/>
<path d="M332.441 248.093C333.788 248.093 334.881 247 334.881 245.652C334.881 244.304 333.788 243.212 332.441 243.212C331.093 243.212 330 244.304 330 245.652C330 247 331.093 248.093 332.441 248.093Z" fill="black"/>
<path d="M347.929 248.093C349.277 248.093 350.369 247 350.369 245.652C350.369 244.304 349.277 243.212 347.929 243.212C346.581 243.212 345.488 244.304 345.488 245.652C345.488 247 346.581 248.093 347.929 248.093Z" fill="black"/>
<path d="M363.417 248.093C364.765 248.093 365.858 247 365.858 245.652C365.858 244.304 364.765 243.212 363.417 243.212C362.069 243.212 360.977 244.304 360.977 245.652C360.977 247 362.069 248.093 363.417 248.093Z" fill="black"/>
<path d="M332.441 176.881C333.788 176.881 334.881 175.788 334.881 174.441C334.881 173.093 333.788 172 332.441 172C331.093 172 330 173.093 330 174.441C330 175.788 331.093 176.881 332.441 176.881Z" fill="black"/>
<path d="M347.929 176.881C349.277 176.881 350.369 175.788 350.369 174.441C350.369 173.093 349.277 172 347.929 172C346.581 172 345.488 173.093 345.488 174.441C345.488 175.788 346.581 176.881 347.929 176.881Z" fill="black"/>
<path d="M363.417 176.881C364.765 176.881 365.858 175.788 365.858 174.441C365.858 173.093 364.765 172 363.417 172C362.069 172 360.977 173.093 360.977 174.441C360.977 175.788 362.069 176.881 363.417 176.881Z" fill="black"/>
</svg>
