<svg width="179" height="142" viewBox="0 0 179 142" fill="none" xmlns="http://www.w3.org/2000/svg">
<path d="M23.125 1H5C2.79086 1 1 2.79086 1 5V18.5M155.875 1H174C176.209 1 178 2.79086 178 5V18.5M23.125 141H5C2.79086 141 1 139.209 1 137V123.5M155.875 141H174C176.209 141 178 139.209 178 137V123.5" stroke="#E5E5E5"/>
<path d="M74.6875 63.3438H72.5V65.5312H74.6875V63.3438Z" fill="#EA6628"/>
<path d="M85.625 63.3438H83.4375V65.5312H85.625V63.3438Z" fill="#EA6628"/>
<path d="M121.874 75.3858L117.601 74.7755C117.398 74.1779 117.158 73.5935 116.882 73.0255L119.468 69.578C119.626 69.3674 119.702 69.1068 119.684 68.8442C119.665 68.5817 119.552 68.3346 119.366 68.1485L114.725 63.5077C114.547 63.3307 114.313 63.2212 114.063 63.1981V52.6697C115.086 51.8504 115.912 50.8116 116.48 49.6301C117.048 48.4486 117.343 47.1545 117.344 45.8436C117.354 44.186 116.888 42.5604 116.001 41.1598C115.115 39.7592 113.845 38.6425 112.342 37.9424C112.175 37.8637 111.992 37.8284 111.808 37.8397C111.624 37.8511 111.445 37.9088 111.29 38.0074C111.134 38.1061 111.006 38.2425 110.917 38.404C110.828 38.5655 110.781 38.7468 110.781 38.9311V45.0561L108.594 45.7857L106.406 45.0561V38.9311C106.406 38.7472 106.358 38.5664 106.269 38.4055C106.18 38.2446 106.052 38.1088 105.896 38.0106C105.74 37.9125 105.563 37.8552 105.379 37.844C105.195 37.8329 105.012 37.8682 104.846 37.9467C103.344 38.6466 102.074 39.7626 101.188 41.1623C100.301 42.562 99.8346 44.1868 99.8438 45.8436C99.8445 47.1545 100.14 48.4486 100.708 49.6301C101.276 50.8116 102.102 51.8504 103.125 52.6697V60.0624H99.8438C99.5806 60.0623 99.3262 60.1572 99.1273 60.3296C98.9284 60.502 98.7984 60.7403 98.761 61.0008L98.0533 65.9544L100.219 66.2639L100.792 62.2499H105.458L106.031 66.2639C106.061 66.4719 106.15 66.6669 106.288 66.8255C106.426 66.9842 106.606 67.0998 106.808 67.1586C107.719 67.422 108.6 67.784 109.433 68.2381C109.617 68.3392 109.827 68.385 110.036 68.3701C110.246 68.3552 110.447 68.2801 110.615 68.1539L113.854 65.7258L117.152 69.0246L114.719 72.2631C114.593 72.4313 114.518 72.6322 114.503 72.8419C114.488 73.0516 114.534 73.2612 114.635 73.4455C115.089 74.2787 115.451 75.1589 115.714 76.0705C115.773 76.2722 115.889 76.4527 116.047 76.5904C116.206 76.7281 116.401 76.8172 116.609 76.8471L120.623 77.4202V82.0861L116.609 82.6592C116.401 82.6891 116.206 82.7782 116.047 82.9159C115.889 83.0536 115.773 83.2341 115.714 83.4358C115.451 84.3474 115.089 85.2276 114.635 86.0608C114.534 86.2451 114.488 86.4547 114.503 86.6644C114.518 86.8741 114.593 87.075 114.719 87.2431L117.147 90.4817L113.848 93.7805L110.612 91.3436C110.444 91.2174 110.243 91.1424 110.033 91.1275C109.823 91.1125 109.614 91.1583 109.429 91.2594C108.596 91.7135 107.716 92.0755 106.804 92.3389C106.603 92.3977 106.422 92.5134 106.285 92.672C106.147 92.8307 106.058 93.0257 106.028 93.2336L105.458 97.2499H100.938V92.6244C100.937 91.4689 100.771 90.3194 100.445 89.2108C102.529 89.8207 104.754 89.7336 106.783 88.9627C108.813 88.1918 110.535 86.7793 111.688 84.94C112.84 83.1007 113.361 80.9353 113.17 78.7729C112.98 76.6106 112.088 74.5696 110.631 72.9605C109.174 71.3513 107.232 70.2619 105.099 69.858C102.966 69.4541 100.76 69.7578 98.8152 70.7228C96.8707 71.6879 95.2947 73.2615 94.3266 75.2044C93.3585 77.1474 93.0514 79.3533 93.4519 81.4867C93.4257 81.4758 93.4005 81.4627 93.3743 81.4528L84.5313 77.9156V76.2346C85.9929 75.4868 87.2874 74.4502 88.3365 73.1874H91.0938C91.9641 73.1874 92.7987 72.8417 93.414 72.2263C94.0294 71.611 94.3751 70.7764 94.3751 69.9061V67.5174C95.0126 67.292 95.565 66.8751 95.9565 66.3238C96.3481 65.7724 96.5598 65.1136 96.5626 64.4374V61.1561C96.5598 60.4799 96.3481 59.8211 95.9565 59.2697C95.565 58.7184 95.0126 58.3015 94.3751 58.0761V56.7811C94.3751 52.72 92.7618 48.8252 89.8901 45.9535C87.0185 43.0819 83.1237 41.4686 79.0626 41.4686C75.0014 41.4686 71.1066 43.0819 68.235 45.9535C65.3633 48.8252 63.7501 52.72 63.7501 56.7811V58.0761C63.1125 58.3015 62.5602 58.7184 62.1686 59.2697C61.777 59.8211 61.5654 60.4799 61.5626 61.1561V64.4374C61.5626 65.3076 61.9083 66.1422 62.5236 66.7576C63.139 67.3729 63.9736 67.7186 64.8438 67.7186H67.0313C67.1013 67.7186 67.1691 67.7077 67.238 67.7033C67.5743 69.5167 68.3222 71.2289 69.4241 72.7079C70.5259 74.1869 71.9524 75.3934 73.5938 76.2346V77.9156L64.7508 81.4528C62.5137 82.3394 60.5955 83.8795 59.2464 85.8722C57.8973 87.865 57.1798 90.2179 57.1876 92.6244V102.719C57.1876 103.009 57.3028 103.287 57.5079 103.492C57.713 103.697 57.9912 103.812 58.2813 103.812H99.8438C100.134 103.812 100.412 103.697 100.617 103.492C100.822 103.287 100.938 103.009 100.938 102.719V99.4374H106.406C106.67 99.4374 106.924 99.3425 107.123 99.1701C107.322 98.9978 107.452 98.7595 107.489 98.4989L108.099 94.2256C108.697 94.0224 109.281 93.7824 109.849 93.5071L113.297 96.0927C113.508 96.2506 113.768 96.3273 114.031 96.3086C114.293 96.2899 114.54 96.1771 114.726 95.991L119.367 91.3502C119.553 91.164 119.666 90.917 119.685 90.6544C119.704 90.3918 119.627 90.1313 119.469 89.9206L116.883 86.4731C117.159 85.9052 117.399 85.3207 117.602 84.7231L121.875 84.1128C122.135 84.0752 122.373 83.9452 122.545 83.7466C122.718 83.5479 122.812 83.294 122.813 83.0311V76.4686C122.813 76.2054 122.718 75.951 122.545 75.7521C122.373 75.5532 122.135 75.4232 121.874 75.3858ZM109.843 65.9927C109.791 65.9675 109.733 65.9511 109.682 65.9271V52.4061H107.5V61.0796L107.489 61.0008C107.452 60.7403 107.322 60.502 107.123 60.3296C106.924 60.1572 106.67 60.0623 106.406 60.0624H105.313V52.1217C105.313 51.9453 105.27 51.7715 105.188 51.6152C105.106 51.4588 104.988 51.3245 104.843 51.2238C104.03 50.6577 103.356 49.9149 102.871 49.0511C102.386 48.1873 102.103 47.2249 102.043 46.236C101.982 45.2471 102.147 44.2575 102.524 43.3413C102.901 42.4251 103.48 41.6061 104.219 40.9458V45.8436C104.219 46.0733 104.291 46.2971 104.425 46.4834C104.56 46.6697 104.749 46.809 104.967 46.8816L108.248 47.9753C108.473 48.0501 108.715 48.0501 108.939 47.9753L112.221 46.8816C112.439 46.809 112.628 46.6697 112.762 46.4834C112.897 46.2971 112.969 46.0733 112.969 45.8436V40.9458C113.708 41.6061 114.288 42.4253 114.665 43.3418C115.042 44.2583 115.207 45.2484 115.147 46.2377C115.087 47.227 114.804 48.1899 114.318 49.054C113.833 49.9181 113.158 50.6611 112.344 51.2271C112.2 51.3275 112.082 51.4612 112 51.617C111.919 51.7727 111.876 51.9459 111.875 52.1217V64.4735L109.843 65.9927ZM95.4688 79.7499C95.4568 78.0397 96.0136 76.374 97.0518 75.0149C98.0899 73.6558 99.5504 72.6804 101.204 72.2421C102.857 71.8039 104.609 71.9276 106.184 72.5939C107.759 73.2602 109.068 74.4312 109.904 75.9228C110.741 77.4143 111.058 79.1417 110.806 80.8333C110.554 82.5248 109.746 84.0844 108.511 85.2668C107.275 86.4492 105.681 87.1872 103.98 87.3648C102.279 87.5424 100.568 87.1495 99.1143 86.2478C98.3582 85.0366 97.3909 83.9708 96.2585 83.1011C95.7381 82.0607 95.4678 80.9132 95.4688 79.7499V79.7499ZM91.0938 70.9999H89.766C90.299 69.9618 90.6767 68.8511 90.8871 67.7033C90.956 67.7033 91.0238 67.7186 91.0938 67.7186H92.1876V69.9061C92.1876 70.1962 92.0723 70.4744 91.8672 70.6795C91.6621 70.8846 91.3839 70.9999 91.0938 70.9999ZM88.9063 58.9686C88.3971 58.9674 87.8952 58.8482 87.4398 58.6205C86.9843 58.3928 86.5878 58.0627 86.2813 57.6561L84.3126 55.0311C84.2247 54.9139 84.1141 54.8156 83.9875 54.7419C83.8608 54.6683 83.7207 54.6208 83.5754 54.6024C83.43 54.5845 83.2825 54.5957 83.1415 54.6353C83.0005 54.675 82.8688 54.7422 82.754 54.8332L79.0833 57.7655C78.1148 58.5405 76.9124 58.9646 75.6719 58.9686H69.2188V57.8749C69.2188 55.2641 70.2559 52.7603 72.102 50.9143C73.948 49.0682 76.4518 48.0311 79.0626 48.0311C81.6733 48.0311 84.1771 49.0682 86.0231 50.9143C87.8692 52.7603 88.9063 55.2641 88.9063 57.8749V58.9686ZM94.3751 64.4374C94.3751 64.7274 94.2598 65.0056 94.0547 65.2108C93.8496 65.4159 93.5714 65.5311 93.2813 65.5311H91.0938V60.0624H93.2813C93.5714 60.0624 93.8496 60.1776 94.0547 60.3827C94.2598 60.5878 94.3751 60.866 94.3751 61.1561V64.4374ZM79.0626 43.6561C82.5424 43.6599 85.8786 45.0439 88.3392 47.5045C90.7998 49.9651 92.1838 53.3013 92.1876 56.7811V57.8749H91.0938C91.0938 54.684 89.8262 51.6238 87.5699 49.3675C85.3136 47.1112 82.2534 45.8436 79.0626 45.8436C75.8717 45.8436 72.8115 47.1112 70.5552 49.3675C68.2989 51.6238 67.0313 54.684 67.0313 57.8749H65.9376V56.7811C65.9413 53.3013 67.3253 49.9651 69.7859 47.5045C72.2465 45.0439 75.5828 43.6599 79.0626 43.6561V43.6561ZM64.8438 65.5311C64.5537 65.5311 64.2755 65.4159 64.0704 65.2108C63.8653 65.0056 63.7501 64.7274 63.7501 64.4374V61.1561C63.7501 60.866 63.8653 60.5878 64.0704 60.3827C64.2755 60.1776 64.5537 60.0624 64.8438 60.0624H67.0313V65.5311H64.8438ZM69.2188 65.5311V61.1561H75.6719C77.4098 61.1538 79.0955 60.5623 80.4538 59.4783L83.244 57.246L84.5313 58.9686C85.0422 59.6463 85.703 60.1964 86.462 60.5759C87.2211 60.9554 88.0577 61.154 88.9063 61.1561V65.5311C88.9081 67.4791 88.3285 69.3833 87.2416 70.9999H79.0626V73.1874H85.2357C83.7913 74.3553 82.0456 75.0902 80.2008 75.307C78.356 75.5239 76.4875 75.2138 74.8116 74.4127C73.1357 73.6116 71.721 72.3523 70.7312 70.7805C69.7414 69.2086 69.2171 67.3886 69.2188 65.5311V65.5311ZM79.0626 77.5624C80.1726 77.5596 81.2769 77.4028 82.3438 77.0964V78.6561C82.3438 79.5264 81.9981 80.361 81.3828 80.9763C80.7674 81.5917 79.9328 81.9374 79.0626 81.9374C78.1923 81.9374 77.3577 81.5917 76.7424 80.9763C76.127 80.361 75.7813 79.5264 75.7813 78.6561V77.0964C76.8482 77.4028 77.9525 77.5596 79.0626 77.5624ZM98.7501 101.625H92.1876V89.5936H90.0001V101.625H68.1251V89.5936H65.9376V101.625H59.3751V92.6244C59.3687 90.6554 59.9557 88.7302 61.0596 87.0997C62.1635 85.4693 63.733 84.2093 65.5635 83.4839L73.8355 80.1753C74.1585 81.3126 74.8437 82.3136 75.787 83.0263C76.7303 83.739 77.8803 84.1246 79.0626 84.1246C80.2448 84.1246 81.3949 83.739 82.3382 83.0263C83.2815 82.3136 83.9666 81.3126 84.2896 80.1753L92.5616 83.4839C94.3921 84.2093 95.9617 85.4693 97.0655 87.0997C98.1694 88.7302 98.7564 90.6554 98.7501 92.6244V101.625Z" fill="#EA6628"/>
<path d="M104.219 64.4375H102.031V66.625H104.219V64.4375Z" fill="#EA6628"/>
<path d="M104.219 92.875H102.031V95.0625H104.219V92.875Z" fill="#EA6628"/>
<path d="M113.178 88.2577L111.631 89.8044L113.178 91.3512L114.725 89.8044L113.178 88.2577Z" fill="#EA6628"/>
<path d="M118.438 78.6562H116.25V80.8438H118.438V78.6562Z" fill="#EA6628"/>
<path d="M113.179 68.1495L111.632 69.6963L113.179 71.2431L114.726 69.6963L113.179 68.1495Z" fill="#EA6628"/>
</svg>
