<svg width="179" height="142" viewBox="0 0 179 142" fill="none" xmlns="http://www.w3.org/2000/svg">
<path d="M23.125 1H5C2.79086 1 1 2.79086 1 5V18.5M155.875 1H174C176.209 1 178 2.79086 178 5V18.5M23.125 141H5C2.79086 141 1 139.209 1 137V123.5M155.875 141H174C176.209 141 178 139.209 178 137V123.5" stroke="#E5E5E5"/>
<g clip-path="url(#clip0_1907_6067)">
<path d="M126.871 51.5991C126.631 50.7031 126.043 49.9394 125.239 49.4763C124.434 49.011 123.477 48.8851 122.579 49.126C121.683 49.3675 120.919 49.9547 120.456 50.759L119.873 51.7739C119.318 51.4555 118.611 51.6429 118.286 52.1943L115.324 57.2446L114.309 56.6614C114.04 56.5059 113.72 56.4637 113.42 56.5446C113.12 56.626 112.865 56.8231 112.71 57.0931C112.394 57.6507 112.587 58.3592 113.142 58.6793L114.157 59.2626L104.242 76.4446L101.792 82.9889L100.626 85.1698C99.943 86.3579 100.016 87.8348 100.813 88.9494L98.1882 92.1686L97.4535 90.326C97.122 89.5047 96.3548 88.942 95.4725 88.8731C94.5897 88.8036 93.7439 89.2399 93.2888 89.9991L92.8691 90.7105L92.4726 86.0446C92.3815 84.9408 91.5266 84.0534 90.4273 83.9201C89.3275 83.7874 88.2863 84.4464 87.9349 85.4967L85.0655 94.1051C84.865 94.714 85.193 95.3701 85.8002 95.5751C85.9141 95.6281 86.0366 95.66 86.1619 95.668C86.6631 95.6697 87.1096 95.3502 87.2702 94.8751L90.1277 86.2667L90.5361 91.0021C90.6204 92.0125 91.3466 92.8526 92.3342 93.0816C93.3219 93.3106 94.3437 92.8754 94.8637 92.0057L95.2954 91.2937L96.0187 93.1254C96.3257 93.8972 97.02 94.448 97.8419 94.5704C98.6638 94.6929 99.4885 94.3688 100.008 93.7201L102.726 90.2793C103.027 90.3579 103.337 90.3972 103.647 90.3961C104.898 90.4058 106.058 89.7474 106.692 88.6692L107.858 86.7213L112.303 81.3207L122.322 63.9284L123.337 64.5117C123.608 64.6666 123.805 64.9223 123.885 65.2236C123.966 65.5226 123.924 65.8416 123.769 66.1099L119.103 74.1937C118.927 74.4591 118.867 74.7849 118.938 75.0959C119.009 75.4063 119.203 75.6746 119.476 75.838C119.745 75.9941 120.065 76.0362 120.365 75.9554C120.665 75.8739 120.92 75.6768 121.074 75.4069L125.74 67.323C126.206 66.5182 126.332 65.5614 126.09 64.6637C125.849 63.7672 125.261 63.0035 124.457 62.5404L123.442 61.9572L126.358 56.9063C126.677 56.3521 126.489 55.6447 125.939 55.32L126.522 54.3051C127 53.4877 127.126 52.5115 126.871 51.5991V51.5991ZM122.474 51.9254C122.628 51.6555 122.885 51.4578 123.186 51.3775C123.485 51.3035 123.802 51.345 124.072 51.4943C124.343 51.6486 124.54 51.9049 124.621 52.2057C124.695 52.5052 124.653 52.8219 124.504 53.0919L123.921 54.1069L121.891 52.9404L122.474 51.9254ZM106.575 84.4937L105.992 84.1554L104.265 83.1518L105.922 78.7195L109.596 80.8422L106.575 84.4937ZM103.076 87.8644C102.583 87.5209 102.431 86.8602 102.726 86.3362L103.309 85.3218L105.339 86.4883L104.755 87.4913C104.592 87.775 104.317 87.9766 103.998 88.0478C103.678 88.1184 103.344 88.0523 103.076 87.8644ZM110.926 78.9296L106.89 76.5967L116.222 60.429L120.258 62.762L110.926 78.9296ZM121.424 60.744L117.388 58.4111L119.721 54.3751L123.757 56.7081L121.424 60.744Z" fill="#EA6628"/>
<path d="M75.4066 87.2812L71.2778 91.3991L68.8048 88.9261C68.3497 88.4739 67.6149 88.4739 67.1599 88.9261C66.9389 89.1454 66.8147 89.4433 66.8147 89.7542C66.8147 90.0652 66.9389 90.3637 67.1599 90.5824L69.6329 93.0554C70.0703 93.4894 70.6615 93.7326 71.2778 93.7321C71.8975 93.7355 72.4938 93.4923 72.9341 93.0554L77.0515 88.9261C77.4479 88.463 77.4211 87.7733 76.9905 87.3427C76.5594 86.9116 75.8696 86.8848 75.4066 87.2812Z" fill="#EA6628"/>
<path d="M61.6658 90.4188C61.6658 95.8952 66.105 100.334 71.5808 100.334C77.0565 100.334 81.4957 95.8952 81.4957 90.4188C81.4957 89.7746 80.9734 89.2523 80.3293 89.2523C79.6851 89.2523 79.1628 89.7746 79.1628 90.4188C79.1628 94.6062 75.7682 98.0008 71.5808 98.0008C67.3933 98.0008 63.9987 94.6062 63.9987 90.4188C63.9987 86.2314 67.3933 82.8368 71.5808 82.8368C73.2222 82.8322 74.8199 83.3648 76.1299 84.3535C76.6453 84.7402 77.3766 84.6354 77.7628 84.12C78.1495 83.6045 78.0453 82.8738 77.5299 82.4871C74.5254 80.2339 70.5054 79.8716 67.1467 81.5507C63.7874 83.2303 61.6658 86.6637 61.6658 90.4188Z" fill="#EA6628"/>
<path d="M98.9927 44.3434C99.6369 44.3434 100.159 43.8217 100.159 43.177C100.159 42.5328 99.6369 42.0105 98.9927 42.0105H68.6645C68.0203 42.0105 67.498 42.5328 67.498 43.177V47.8428C67.498 48.4876 68.0203 49.0093 68.6645 49.0093H98.9927C99.6369 49.0093 100.159 48.4876 100.159 47.8428C100.159 47.1987 99.6369 46.6764 98.9927 46.6764H69.831V44.3434H98.9927Z" fill="#EA6628"/>
<path d="M72.164 51.3423C71.5198 51.3423 70.9976 51.8646 70.9976 52.5088C70.9976 53.1535 71.5198 53.6752 72.164 53.6752H95.4934C96.1376 53.6752 96.6599 53.1535 96.6599 52.5088C96.6599 51.8646 96.1376 51.3423 95.4934 51.3423H72.164Z" fill="#EA6628"/>
<path d="M102.492 59.5076H76.8298C76.1856 59.5076 75.6633 60.0299 75.6633 60.674C75.6633 61.3188 76.1856 61.8405 76.8298 61.8405H102.492C103.136 61.8405 103.659 61.3188 103.659 60.674C103.659 60.0299 103.136 59.5076 102.492 59.5076Z" fill="#EA6628"/>
<path d="M90.8276 67.6728C90.8276 67.0286 90.3053 66.5063 89.6611 66.5063H66.3318C65.6876 66.5063 65.1653 67.0286 65.1653 67.6728C65.1653 68.3176 65.6876 68.8393 66.3318 68.8393H89.6611C90.3053 68.8393 90.8276 68.3176 90.8276 67.6728Z" fill="#EA6628"/>
<path d="M102.492 66.5063H94.3269C93.6827 66.5063 93.1604 67.0286 93.1604 67.6728C93.1604 68.3176 93.6827 68.8393 94.3269 68.8393H102.492C103.136 68.8393 103.659 68.3176 103.659 67.6728C103.659 67.0286 103.136 66.5063 102.492 66.5063Z" fill="#EA6628"/>
<path d="M77.9964 74.6716C78.6406 74.6716 79.1629 74.1499 79.1629 73.5051C79.1629 72.8609 78.6406 72.3386 77.9964 72.3386H66.3318C65.6876 72.3386 65.1653 72.8609 65.1653 73.5051C65.1653 74.1499 65.6876 74.6716 66.3318 74.6716H77.9964Z" fill="#EA6628"/>
<path d="M82.6623 74.6716H90.8276C91.4718 74.6716 91.9941 74.1499 91.9941 73.5051C91.9941 72.8609 91.4718 72.3386 90.8276 72.3386H82.6623C82.0181 72.3386 81.4958 72.8609 81.4958 73.5051C81.4958 74.1499 82.0181 74.6716 82.6623 74.6716Z" fill="#EA6628"/>
<path d="M109.491 88.6692C108.847 88.6692 108.325 89.1915 108.325 89.8357V101.5C108.325 102.145 107.802 102.667 107.158 102.667H60.4994C59.8552 102.667 59.3329 102.145 59.3329 101.5V38.5111C59.3329 37.8669 59.8552 37.3447 60.4994 37.3447H107.158C107.802 37.3447 108.325 37.8669 108.325 38.5111V60.4177C108.325 61.0619 108.847 61.5842 109.491 61.5842C110.135 61.5842 110.658 61.0619 110.658 60.4177V38.5111C110.658 36.5786 109.091 35.0117 107.158 35.0117H60.4994C58.5669 35.0117 57 36.5786 57 38.5111V101.5C57 103.433 58.5669 105 60.4994 105H107.158C109.091 105 110.658 103.433 110.658 101.5V89.8357C110.658 89.1915 110.135 88.6692 109.491 88.6692Z" fill="#EA6628"/>
</g>
<defs>
<clipPath id="clip0_1907_6067">
<rect width="70" height="70" fill="white" transform="translate(57 35)"/>
</clipPath>
</defs>
</svg>
