<svg width="179" height="142" viewBox="0 0 179 142" fill="none" xmlns="http://www.w3.org/2000/svg">
<path d="M23.125 1H5C2.79086 1 1 2.79086 1 5V18.5M155.875 1H174C176.209 1 178 2.79086 178 5V18.5M23.125 141H5C2.79086 141 1 139.209 1 137V123.5M155.875 141H174C176.209 141 178 139.209 178 137V123.5" stroke="#E5E5E5"/>
<g clip-path="url(#clip0_1907_6065)">
<path d="M82.0418 56.9377L80.8918 57.3545C79.1169 57.9981 77.7927 59.5507 77.4358 61.4075L77.0456 63.4523C76.8509 64.4651 77.116 65.5024 77.7733 66.2978C78.4309 67.094 79.4004 67.5506 80.4329 67.5506H90.4014C91.4259 67.5506 92.3905 67.1 93.048 66.3143C93.7049 65.5292 93.9782 64.5014 93.7978 63.4943L93.4339 61.4603C93.0967 59.5742 91.7682 57.9964 89.9664 57.3425L88.7472 56.9007V55.1037C88.7472 55.0533 88.7423 55.0041 88.735 54.9556C89.6245 54.0501 90.1339 52.8154 90.1339 51.5521V48.8747C90.1339 46.2612 88.0076 44.135 85.394 44.135C82.7804 44.135 80.6536 46.2612 80.6536 48.8747V51.6355C80.6536 52.9341 81.1891 54.1197 82.0502 54.9807C82.0451 55.0211 82.0418 55.0619 82.0418 55.1036V56.9377ZM91.4725 61.8109L91.8364 63.8452C91.9127 64.2703 91.7973 64.7042 91.5198 65.0357C91.242 65.3677 90.8342 65.5583 90.4011 65.5583H80.4326C79.9963 65.5583 79.5867 65.3655 79.3089 65.0291C79.0316 64.6933 78.9196 64.2557 79.002 63.8271L79.3922 61.7823C79.617 60.612 80.4519 59.633 81.5703 59.2276L82.3236 58.9546C82.3425 58.974 82.3615 58.9935 82.3819 59.0115C83.2403 59.762 84.317 60.1373 85.3944 60.1372C86.4704 60.1372 87.5469 59.7627 88.4054 59.0136C88.4363 58.9866 88.4647 58.9575 88.4918 58.9273L89.2864 59.2153C90.4225 59.6273 91.26 60.6218 91.4725 61.8109ZM82.6458 48.8747C82.6458 47.3598 83.8785 46.1272 85.3936 46.1272C86.6723 46.1272 87.7467 47.0064 88.0518 48.1911C87.9238 48.2537 87.7924 48.3128 87.6579 48.3665C86.4331 48.8569 85.4438 48.7918 85.161 48.5937C84.7105 48.2778 84.0895 48.3867 83.7735 48.8372C83.4577 49.2877 83.5667 49.9088 84.0171 50.2247C84.5036 50.5659 85.1639 50.7365 85.9175 50.7365C86.6022 50.7365 87.3639 50.5942 88.1415 50.3128V51.5518C88.1415 52.3132 87.8266 53.0588 87.2774 53.5974C87.0232 53.8468 86.7319 54.04 86.4192 54.1734C86.3972 54.1817 86.3757 54.1908 86.3546 54.2006C86.0333 54.3277 85.6901 54.3916 85.3394 54.3824C83.854 54.3539 82.6458 53.1215 82.6458 51.6353V48.8747ZM85.3011 56.3745C85.3316 56.375 85.3617 56.3753 85.3921 56.3753C85.8595 56.3753 86.3174 56.305 86.7549 56.1702V57.7638C85.9247 58.2757 84.8634 58.2754 84.0342 57.763V56.1731C84.4372 56.2952 84.8618 56.366 85.3011 56.3745V56.3745Z" fill="#EA6628"/>
<path d="M69.7225 84.6045H100.744C101.294 84.6045 101.74 84.1586 101.74 83.6084C101.74 83.0582 101.294 82.6123 100.744 82.6123H69.7225C69.1723 82.6123 68.7264 83.0582 68.7264 83.6084C68.7264 84.1586 69.1723 84.6045 69.7225 84.6045V84.6045Z" fill="#EA6628"/>
<path d="M69.7225 89.9756H100.744C101.294 89.9756 101.74 89.5297 101.74 88.9795C101.74 88.4292 101.294 87.9834 100.744 87.9834H69.7225C69.1723 87.9834 68.7264 88.4292 68.7264 88.9795C68.7264 89.5297 69.1723 89.9756 69.7225 89.9756V89.9756Z" fill="#EA6628"/>
<path d="M69.7225 95.3464H100.744C101.294 95.3464 101.74 94.9006 101.74 94.3503C101.74 93.8001 101.294 93.3542 100.744 93.3542H69.7225C69.1723 93.3542 68.7264 93.8001 68.7264 94.3503C68.7264 94.9006 69.1723 95.3464 69.7225 95.3464V95.3464Z" fill="#EA6628"/>
<path d="M69.7225 100.718H100.744C101.294 100.718 101.74 100.272 101.74 99.7214C101.74 99.1712 101.294 98.7253 100.744 98.7253H69.7225C69.1723 98.7253 68.7264 99.1712 68.7264 99.7214C68.7264 100.272 69.1723 100.718 69.7225 100.718V100.718Z" fill="#EA6628"/>
<path d="M68.7264 72.8665C68.7264 73.4167 69.1723 73.8625 69.7225 73.8625H100.744C101.294 73.8625 101.74 73.4167 101.74 72.8665C101.74 72.3162 101.294 71.8704 100.744 71.8704H69.7225C69.1723 71.8704 68.7264 72.3163 68.7264 72.8665V72.8665Z" fill="#EA6628"/>
<path d="M69.7225 79.2336H100.744C101.294 79.2336 101.74 78.7878 101.74 78.2375C101.74 77.6873 101.294 77.2415 100.744 77.2415H69.7225C69.1723 77.2415 68.7264 77.6873 68.7264 78.2375C68.7264 78.7878 69.1723 79.2336 69.7225 79.2336V79.2336Z" fill="#EA6628"/>
<path d="M66.0444 84.6083C66.5966 84.6083 67.0443 84.1607 67.0443 83.6085C67.0443 83.0564 66.5966 82.6086 66.0444 82.6086C65.4921 82.6086 65.0446 83.0562 65.0446 83.6085C65.0446 84.1607 65.4923 84.6083 66.0444 84.6083Z" fill="#EA6628"/>
<path d="M66.0444 73.8663C66.5966 73.8663 67.0443 73.4187 67.0443 72.8665C67.0443 72.3143 66.5966 71.8667 66.0444 71.8667C65.4921 71.8667 65.0446 72.3143 65.0446 72.8665C65.0446 73.4187 65.4923 73.8663 66.0444 73.8663Z" fill="#EA6628"/>
<path d="M66.0444 79.2374C66.5966 79.2374 67.0443 78.7898 67.0443 78.2376C67.0443 77.6854 66.5966 77.2378 66.0444 77.2378C65.4921 77.2378 65.0446 77.6854 65.0446 78.2376C65.0446 78.7898 65.4923 79.2374 66.0444 79.2374Z" fill="#EA6628"/>
<path d="M66.0444 89.9791C66.5966 89.9791 67.0443 89.5315 67.0443 88.9793C67.0443 88.4271 66.5966 87.9795 66.0444 87.9795C65.4921 87.9795 65.0446 88.4271 65.0446 88.9793C65.0446 89.5315 65.4923 89.9791 66.0444 89.9791Z" fill="#EA6628"/>
<path d="M66.0444 95.3502C66.5966 95.3502 67.0443 94.9026 67.0443 94.3504C67.0443 93.7982 66.5966 93.3506 66.0444 93.3506C65.4921 93.3506 65.0446 93.7982 65.0446 94.3504C65.0446 94.9025 65.4923 95.3502 66.0444 95.3502Z" fill="#EA6628"/>
<path d="M66.0444 100.721C66.5966 100.721 67.0443 100.273 67.0443 99.7212C67.0443 99.1691 66.5966 98.7214 66.0444 98.7214C65.4921 98.7214 65.0446 99.169 65.0446 99.7212C65.0446 100.273 65.4923 100.721 66.0444 100.721Z" fill="#EA6628"/>
<path d="M122.498 53.6879C122.096 53.1793 121.716 52.6986 121.532 52.2558C121.334 51.7778 121.256 51.1463 121.173 50.4775C121.028 49.3058 120.864 47.9778 119.938 47.0512C119.011 46.1245 117.683 45.9604 116.511 45.8155C115.842 45.7329 115.21 45.6548 114.732 45.4566C114.289 45.2729 113.809 44.8934 113.3 44.4913C112.6 43.9382 111.83 43.3308 110.92 43.0552V42.7539C110.92 40.1327 108.787 38 106.165 38H64.669C62.0474 38 59.9146 40.1327 59.9146 42.754V46.5988C59.9146 47.1491 60.3604 47.5949 60.9106 47.5949C61.4609 47.5949 61.9067 47.1491 61.9067 46.5988V42.754C61.9067 41.2311 63.1459 39.9922 64.669 39.9922H106.165C107.689 39.9922 108.928 41.2311 108.928 42.754V43.0555C108.018 43.3312 107.248 43.9383 106.548 44.4915C106.039 44.8934 105.559 45.2731 105.116 45.4568C104.638 45.6548 104.006 45.7329 103.337 45.8156C102.165 45.9604 100.837 46.1245 99.9105 47.0512C98.9836 47.9779 98.8194 49.3059 98.6745 50.4776C98.5919 51.1463 98.5138 51.778 98.3157 52.256C98.132 52.6988 97.7523 53.1794 97.3503 53.6881C96.606 54.6299 95.7626 55.6973 95.7626 57.0638C95.7626 58.4303 96.6061 59.4977 97.3503 60.4395C97.7522 60.9481 98.132 61.4288 98.3157 61.8716C98.5138 62.3496 98.5919 62.9811 98.6745 63.6501C98.8194 64.8216 98.9836 66.1496 99.9104 67.0762C100.837 68.003 102.165 68.167 103.337 68.3119C103.686 68.3551 104.025 68.3975 104.337 68.4559V83.5125C104.337 84.1025 104.667 84.6295 105.197 84.8877C105.727 85.1463 106.345 85.0807 106.81 84.7167L108.928 83.0588V101.246C108.928 102.769 107.688 104.008 106.165 104.008H64.669C63.1459 104.008 61.9067 102.769 61.9067 101.246V50.9852C61.9067 50.435 61.4609 49.9891 60.9106 49.9891C60.3604 49.9891 59.9146 50.435 59.9146 50.9852V101.246C59.9146 103.867 62.0474 106 64.669 106H106.165C108.787 106 110.92 103.867 110.92 101.246V83.0586L113.037 84.7164C113.314 84.9329 113.644 85.0439 113.979 85.0439C114.207 85.0439 114.436 84.9923 114.651 84.8875C115.182 84.6293 115.511 84.1023 115.511 83.5123V72.3963C115.511 71.8461 115.066 71.4002 114.515 71.4002C113.965 71.4002 113.519 71.8461 113.519 72.3963V82.5638L110.871 80.4907C110.604 80.2789 110.267 80.1621 109.924 80.1621C109.58 80.1621 109.243 80.2789 108.98 80.4872L106.329 82.5627V69.4641C106.402 69.5207 106.474 69.5779 106.548 69.6359C107.49 70.3802 108.557 71.2234 109.924 71.2234C111.29 71.2234 112.358 70.3801 113.3 69.6361C113.809 69.2342 114.289 68.8543 114.732 68.6707C115.21 68.4726 115.842 68.3945 116.511 68.3118C117.683 68.167 119.011 68.0029 119.938 67.0762C120.864 66.1495 121.028 64.8215 121.173 63.6499C121.256 62.9811 121.334 62.3494 121.532 61.8715C121.716 61.4287 122.096 60.948 122.498 60.4393C123.242 59.4976 124.085 58.4301 124.085 57.0636C124.085 55.6971 123.242 54.6297 122.498 53.6879V53.6879ZM120.935 59.2042C120.466 59.7972 119.982 60.4103 119.692 61.1083C119.39 61.8361 119.292 62.6339 119.196 63.4054C119.081 64.3412 118.971 65.2251 118.529 65.6674C118.087 66.1096 117.203 66.2188 116.267 66.3345C115.495 66.4298 114.697 66.5284 113.969 66.8303C113.271 67.1197 112.658 67.604 112.065 68.0726C111.311 68.6683 110.599 69.2311 109.924 69.2311C109.25 69.2311 108.537 68.6684 107.783 68.0726C107.19 67.6042 106.577 67.1197 105.879 66.8303C105.831 66.8104 105.664 66.7469 105.628 66.7357C104.97 66.5067 104.265 66.419 103.581 66.3345C102.646 66.2188 101.762 66.1095 101.319 65.6672C100.877 65.2251 100.768 64.3412 100.652 63.4056C100.557 62.6339 100.458 61.8364 100.156 61.1083C99.8667 60.4103 99.3823 59.7972 98.9137 59.2042C98.3181 58.4501 97.7552 57.7379 97.7552 57.0636C97.7552 56.3894 98.3179 55.6772 98.9137 54.9231C99.3823 54.3301 99.8668 53.717 100.156 53.019C100.458 52.2912 100.557 51.4934 100.652 50.7218C100.768 49.786 100.877 48.9022 101.319 48.4599C101.762 48.0176 102.646 47.9085 103.582 47.7928C104.353 47.6974 105.151 47.5989 105.879 47.297C106.577 47.0076 107.19 46.5232 107.783 46.0547C108.536 45.4601 109.247 44.8985 109.92 44.8964C109.921 44.8964 109.923 44.8966 109.924 44.8966C109.925 44.8966 109.927 44.8964 109.928 44.8964C110.601 44.8984 111.312 45.4601 112.065 46.0547C112.658 46.5231 113.271 47.0076 113.969 47.297C114.697 47.5989 115.495 47.6976 116.267 47.7928C117.203 47.9085 118.087 48.0178 118.529 48.46C118.971 48.9023 119.081 49.786 119.196 50.7218C119.292 51.4934 119.39 52.291 119.692 53.019C119.982 53.717 120.466 54.3301 120.935 54.9231C121.53 55.6772 122.093 56.3894 122.093 57.0636C122.093 57.7379 121.53 58.4502 120.935 59.2042V59.2042Z" fill="#EA6628"/>
<path d="M116.319 53.8982L112.929 52.9391L110.969 50.0119C110.735 49.6624 110.345 49.4539 109.924 49.4539C109.503 49.4539 109.112 49.6625 108.878 50.0119L106.919 52.9391L103.529 53.8983C103.124 54.0129 102.805 54.3204 102.675 54.7204C102.545 55.1204 102.623 55.5567 102.883 55.8869L105.061 58.6551L104.926 62.1742C104.91 62.5947 105.103 62.9934 105.443 63.2409C105.662 63.3996 105.921 63.4817 106.182 63.4817C106.329 63.4817 106.476 63.456 106.617 63.404L109.924 62.1877L113.23 63.4038C113.625 63.5494 114.063 63.4883 114.404 63.2411C114.744 62.994 114.938 62.5954 114.922 62.1748L114.786 58.655L116.965 55.8868C117.225 55.5562 117.303 55.1202 117.173 54.7201C117.043 54.3201 116.724 54.0128 116.319 53.8982V53.8982ZM113.054 57.6359C112.869 57.8702 112.774 58.1632 112.786 58.4619L112.889 61.1558L110.358 60.225C110.078 60.1218 109.769 60.1219 109.489 60.2248L106.959 61.1558L107.062 58.4609C107.073 58.1633 106.978 57.8703 106.793 57.6352L105.126 55.5166L107.721 54.7826C108.008 54.7011 108.258 54.5197 108.424 54.2719L109.924 52.0314L111.424 54.2716C111.59 54.5196 111.839 54.701 112.127 54.7827L114.721 55.5166L113.054 57.6359Z" fill="#EA6628"/>
</g>
<defs>
<clipPath id="clip0_1907_6065">
<rect width="68" height="68" fill="white" transform="translate(58 38)"/>
</clipPath>
</defs>
</svg>
