<svg width="179" height="142" viewBox="0 0 179 142" fill="none" xmlns="http://www.w3.org/2000/svg">
<path d="M23.125 1H5C2.79086 1 1 2.79086 1 5V18.5M155.875 1H174C176.209 1 178 2.79086 178 5V18.5M23.125 141H5C2.79086 141 1 139.209 1 137V123.5M155.875 141H174C176.209 141 178 139.209 178 137V123.5" stroke="#E5E5E5"/>
<g clip-path="url(#clip0_1907_6068)">
<path d="M103.165 89.775C102.952 89.8195 102.742 89.8731 102.535 89.9359C101.253 88.2333 99.4235 87.0782 97.399 86.6297L98.7721 83.974L101.565 81.1829C103.702 79.045 103.702 75.5664 101.565 73.4285L98.5811 70.4428L113.761 55.2543C113.774 55.2422 113.788 55.2314 113.801 55.2187C113.813 55.2059 113.825 55.1918 113.837 55.1785L119.738 49.2746C119.738 49.2745 119.738 49.2743 119.738 49.2743C119.738 49.2742 119.738 49.2741 119.738 49.2739L122.506 46.5042C124.449 44.566 124.45 41.4049 122.508 39.4566C121.569 38.5172 120.318 38 118.984 38C118.983 38 118.982 38 118.981 38C117.648 38.0009 116.398 38.5186 115.463 39.4566L112.694 42.2268C112.694 42.2268 112.694 42.2268 112.694 42.2268L112.694 42.2269L106.792 48.132C106.779 48.144 106.766 48.1548 106.753 48.1673C106.74 48.1802 106.729 48.194 106.717 48.2073L103.37 51.556C102.851 52.0749 102.852 52.9158 103.37 53.4344C103.889 53.9528 104.73 53.9526 105.249 53.4339L107.694 50.9875L110.982 54.2775L96.7032 68.564L93.4149 65.274L96.8205 61.8665C97.339 61.3476 97.3387 60.5068 96.82 59.9882C96.301 59.4697 95.4601 59.4698 94.9416 59.9887L91.5371 63.3951L88.554 60.4104C87.5224 59.3783 86.1458 58.8099 84.6779 58.8099C83.2099 58.8099 81.8334 59.3783 80.8012 60.411L78.0121 63.2053L72.6339 65.9924C72.6282 65.9953 72.6225 65.9982 72.6169 66.0011L67.4365 68.6857C67.4137 68.6967 67.3913 68.7082 67.3689 68.7206L59.0104 73.0523C57.2158 73.9813 56.2432 75.0793 56.0367 76.4091C55.837 77.6959 56.4217 79.0348 57.7746 80.3883L61.4531 84.07C61.4668 84.0849 61.4814 84.0984 61.4956 84.1126L69.6833 92.3074L77.8493 100.475C77.8696 100.497 77.8906 100.518 77.9125 100.538L81.5955 104.222C82.7764 105.404 83.9458 106 85.0794 106C85.2448 106 85.4095 105.987 85.5733 105.962C86.9031 105.755 88.001 104.782 88.9295 102.986L89.5327 101.82C89.868 102.124 90.2281 102.404 90.6127 102.658C92.0738 103.62 93.7468 104.118 95.4555 104.118C96.0544 104.118 96.6582 104.057 97.2583 103.933C98.3918 103.7 99.4635 103.249 100.41 102.613C102.027 103.784 104.064 104.234 106.059 103.824C107.935 103.437 109.548 102.343 110.601 100.743C111.653 99.1433 112.02 97.2296 111.633 95.3547C110.838 91.4845 107.041 88.9809 103.165 89.775V89.775ZM118.982 40.6562H118.984C119.608 40.6562 120.192 40.897 120.628 41.3331C121.535 42.2435 121.536 43.7198 120.629 44.6254L118.799 46.4562L115.511 43.1661L117.343 41.3329C117.778 40.897 118.36 40.6566 118.982 40.6562V40.6562ZM109.572 49.1086L113.633 45.0449L116.921 48.3349L112.86 52.3986L109.572 49.1086ZM89.1238 89.121L70.2386 70.2256L72.9897 68.8L91.5317 87.3521C90.6223 87.8056 89.8115 88.4075 89.1238 89.121V89.121ZM78.5544 65.916L96.0615 83.4328L94.4866 86.4792C94.4651 86.4816 94.4436 86.484 94.422 86.4865L75.4637 67.5177L78.5544 65.916ZM82.6808 62.2882C83.2105 61.7582 83.9199 61.4662 84.6781 61.4662C85.4362 61.4662 86.1456 61.7582 86.6755 62.2882L99.6865 75.3062C100.788 76.4087 100.788 78.2027 99.6871 79.3046L97.6879 81.3023L80.6838 64.2889L82.6808 62.2882ZM86.5704 101.766C86.0871 102.701 85.5753 103.274 85.1663 103.337C84.7808 103.397 84.1645 103.035 83.4744 102.345L80.445 99.3144L83.3458 93.715C83.6832 93.0637 83.4288 92.2621 82.7774 91.9248C82.126 91.5875 81.3246 91.8418 80.9873 92.4931L78.4746 97.3434L72.5033 91.3707L76.7073 87.1522C77.225 86.6326 77.2235 85.7916 76.7039 85.2739C76.1844 84.7562 75.3434 84.7576 74.8257 85.2773L70.6256 89.4919L64.6512 83.5123L69.5 80.9975C70.1512 80.6599 70.4053 79.8583 70.0676 79.2071C69.7299 78.556 68.928 78.3017 68.2771 78.6396L62.682 81.5414L59.654 78.5107C58.9636 77.8201 58.6021 77.2025 58.662 76.8166C58.7256 76.4071 59.2978 75.8949 60.2325 75.411L67.7647 71.5077L87.5693 91.3232C86.7131 93.036 86.4004 95.0362 86.8147 97.0543C86.9964 97.9347 87.3049 98.7677 87.7252 99.5342L86.5704 101.766ZM108.382 99.2831C107.72 100.29 106.704 100.979 105.524 101.222C104.02 101.532 102.478 101.064 101.397 99.9708C100.901 99.4685 100.098 99.4425 99.57 99.9121C98.7721 100.622 97.7877 101.113 96.7224 101.332C95.1052 101.666 93.4546 101.349 92.0746 100.44C90.6943 99.5303 89.7501 98.1374 89.4161 96.519C88.7293 93.1732 90.8886 89.8928 94.2295 89.2063C94.2296 89.2063 94.2297 89.2063 94.23 89.2061C94.6505 89.1195 95.0712 89.0776 95.4876 89.0776C97.6837 89.0776 99.7454 90.2475 100.862 92.2191C101.21 92.8327 101.976 93.0676 102.608 92.7543C102.953 92.5833 103.323 92.4556 103.703 92.3762C106.14 91.8774 108.531 93.4535 109.032 95.891C109.276 97.0713 109.045 98.2762 108.382 99.2831V99.2831Z" fill="#EA6628"/>
<path d="M119.383 94.0383C116.836 94.0383 114.763 96.1102 114.763 98.6567C114.763 101.205 116.836 103.279 119.383 103.279C121.929 103.279 124 101.205 124 98.6567C124 96.1102 121.929 94.0383 119.383 94.0383ZM119.383 100.623C118.3 100.623 117.419 99.7408 117.419 98.6567C117.419 97.5749 118.3 96.6946 119.383 96.6946C120.464 96.6946 121.344 97.5747 121.344 98.6567C121.344 99.7408 120.464 100.623 119.383 100.623Z" fill="#EA6628"/>
<path d="M119.056 79.9127C119.056 76.7164 116.457 74.116 113.261 74.116C110.068 74.116 107.471 76.7164 107.471 79.9127C107.471 83.109 110.069 85.7095 113.261 85.7095C116.457 85.7095 119.056 83.109 119.056 79.9127ZM113.261 83.0532C111.533 83.0532 110.127 81.6445 110.127 79.9127C110.127 78.181 111.533 76.7722 113.261 76.7722C114.992 76.7722 116.4 78.181 116.4 79.9127C116.4 81.6445 114.992 83.0532 113.261 83.0532Z" fill="#EA6628"/>
<path d="M100.094 58.0403C100.435 58.0403 100.776 57.9102 101.035 57.6504C101.554 57.1318 101.554 56.2908 101.035 55.772C100.517 55.2534 99.6759 55.2534 99.1571 55.772L99.1534 55.7757C98.6348 56.2944 98.6367 57.1335 99.1553 57.6521C99.4143 57.9111 99.7537 58.0403 100.094 58.0403V58.0403Z" fill="#EA6628"/>
</g>
<defs>
<clipPath id="clip0_1907_6068">
<rect width="68" height="68" fill="white" transform="translate(56 38)"/>
</clipPath>
</defs>
</svg>
