<svg width="12" height="8" viewBox="0 0 12 8" fill="none" xmlns="http://www.w3.org/2000/svg">
<path d="M6.46824 7.33339L11.8083 1.99324C11.9319 1.86973 12 1.70486 12 1.52905C12 1.35325 11.9319 1.18837 11.8083 1.06486L11.4151 0.671596C11.1589 0.415696 10.7425 0.415696 10.4867 0.671596L6.00249 5.15585L1.51326 0.66662C1.38965 0.543109 1.22487 0.474915 1.04916 0.474915C0.873261 0.474915 0.708482 0.543109 0.584775 0.66662L0.191706 1.05989C0.0680971 1.18349 0 1.34827 0 1.52408C0 1.69988 0.0680971 1.86476 0.191706 1.98827L5.53664 7.33339C5.66064 7.4572 5.8262 7.5252 6.00219 7.52481C6.17888 7.5252 6.34434 7.4572 6.46824 7.33339Z" fill="#B1B1B1"/>
</svg>
