<svg width="24" height="24" viewBox="0 0 24 24" fill="none" xmlns="http://www.w3.org/2000/svg">
<g clip-path="url(#clip0_1903_1606)">
<path d="M23.6437 8.6749C23.3268 8.27731 22.8513 8.04921 22.3392 8.04921H17.7171L15.2108 2.31017C15.0554 1.95434 14.6409 1.79173 14.285 1.94721C13.9291 2.1026 13.7666 2.51712 13.9221 2.87299L16.1826 8.04926H7.81739L10.0779 2.87299C10.2333 2.51712 10.0709 2.10265 9.71499 1.94721C9.35916 1.79173 8.94464 1.95424 8.78925 2.31017L6.28289 8.04926H1.66083C1.14867 8.04926 0.673222 8.27731 0.3563 8.67495C0.0451904 9.06532 -0.0696064 9.56717 0.0413467 10.0519L2.50964 20.8332C2.682 21.586 3.34796 22.1118 4.12913 22.1118H19.8709C20.6521 22.1118 21.318 21.586 21.4904 20.8332L23.9587 10.0519C24.0696 9.56712 23.9548 9.06528 23.6437 8.6749ZM19.8709 20.7055H4.12913C4.00974 20.7055 3.90516 20.6272 3.88046 20.5193L1.41216 9.73812C1.3928 9.65351 1.42528 9.58985 1.45603 9.55137C1.48453 9.51556 1.54908 9.45551 1.66083 9.45551H5.66878L5.48461 9.87724C5.32922 10.2331 5.49169 10.6476 5.84757 10.803C5.93916 10.8431 6.0346 10.862 6.12858 10.862C6.39961 10.862 6.65789 10.7044 6.7733 10.4401L7.20328 9.4556H16.7968L17.2268 10.4401C17.3422 10.7044 17.6005 10.862 17.8715 10.862C17.9655 10.862 18.0609 10.8431 18.1525 10.803C18.5084 10.6476 18.6709 10.2331 18.5155 9.87724L18.3313 9.45551H22.3393C22.451 9.45551 22.5156 9.51556 22.5441 9.55137C22.5748 9.5899 22.6073 9.65356 22.5879 9.73807L20.1196 20.5193C20.0949 20.6272 19.9903 20.7055 19.8709 20.7055Z" fill="white"/>
<path d="M7.78125 12.5023C7.39294 12.5023 7.07812 12.8171 7.07812 13.2055V18.3617C7.07812 18.75 7.39294 19.0648 7.78125 19.0648C8.16956 19.0648 8.48438 18.75 8.48438 18.3617V13.2055C8.48438 12.8171 8.16961 12.5023 7.78125 12.5023Z" fill="white"/>
<path d="M12 12.5023C11.6117 12.5023 11.2969 12.8171 11.2969 13.2055V18.3617C11.2969 18.75 11.6117 19.0648 12 19.0648C12.3883 19.0648 12.7031 18.75 12.7031 18.3617V13.2055C12.7031 12.8171 12.3883 12.5023 12 12.5023Z" fill="white"/>
<path d="M16.2188 12.5023C15.8304 12.5023 15.5156 12.8171 15.5156 13.2055V18.3617C15.5156 18.75 15.8304 19.0648 16.2188 19.0648C16.6071 19.0648 16.9219 18.75 16.9219 18.3617V13.2055C16.9218 12.8171 16.6071 12.5023 16.2188 12.5023Z" fill="white"/>
</g>
<defs>
<clipPath id="clip0_1903_1606">
<rect width="24" height="24" fill="white"/>
</clipPath>
</defs>
</svg>
