<svg width="16" height="16" viewBox="0 0 16 16" fill="none" xmlns="http://www.w3.org/2000/svg">
<g clip-path="url(#clip0_159_39)">
<path d="M1.0903 13.4543H3.6358V15.6364C3.6358 15.7426 3.66977 15.8295 3.73811 15.8974C3.80627 15.9658 3.8934 16 3.99954 16H5.89716C5.99565 16 6.08087 15.9658 6.15285 15.8974C6.22483 15.8295 6.26071 15.7426 6.26071 15.6364V13.4543H11.9993C12.1052 13.4543 12.1924 13.4206 12.2607 13.3522C12.3291 13.2839 12.363 13.1969 12.363 13.0907V11.6361C12.363 11.5306 12.3291 11.443 12.2607 11.3751C12.1926 11.3067 12.1052 11.2726 11.9993 11.2726H6.26052V9.93158H10.1242C11.6392 9.93158 12.8758 9.46992 13.8344 8.54529C14.7926 7.62163 15.272 6.42849 15.272 4.96579C15.272 3.50407 14.7926 2.31089 13.8344 1.38629C12.876 0.462599 11.6392 0 10.1242 0H3.99935C3.89318 0 3.80623 0.0341562 3.73792 0.102124C3.66977 0.170467 3.63561 0.257975 3.63561 0.363549V7.51145H1.0903C0.984161 7.51145 0.897187 7.54736 0.828874 7.61931C0.76075 7.69129 0.726562 7.77651 0.726562 7.87496V9.56797C0.726562 9.67414 0.760531 9.76111 0.828874 9.82943C0.897218 9.8978 0.983973 9.93155 1.0903 9.93155H3.6358V11.2725H1.0903C0.984161 11.2725 0.897187 11.3067 0.828874 11.3751C0.76075 11.443 0.726562 11.5304 0.726562 11.6361V13.0907C0.726562 13.1969 0.760531 13.2838 0.828874 13.3522C0.897187 13.4206 0.98413 13.4543 1.0903 13.4543ZM6.26052 2.4207H9.89689C10.6998 2.4207 11.3474 2.65546 11.84 3.12515C12.3324 3.59487 12.5786 4.20871 12.5786 4.96598C12.5786 5.72363 12.3324 6.33765 11.84 6.80681C11.3474 7.2769 10.6998 7.51167 9.89689 7.51167H6.26052V2.4207Z" fill="black"/>
</g>
<defs>
<clipPath id="clip0_159_39">
<rect width="16" height="16" fill="white"/>
</clipPath>
</defs>
</svg>
