<svg width="13" height="13" viewBox="0 0 13 13" fill="none" xmlns="http://www.w3.org/2000/svg">
<path d="M0.886356 10.9316H2.95457V12.7046C2.95457 12.7909 2.98217 12.8615 3.0377 12.9167C3.09308 12.9722 3.16387 13 3.25011 13H4.79193C4.87195 13 4.94119 12.9722 4.99968 12.9167C5.05816 12.8615 5.08732 12.7908 5.08732 12.7046V10.9316H9.74994C9.836 10.9316 9.90682 10.9042 9.96232 10.8487C10.0179 10.7931 10.0455 10.7225 10.0455 10.6362V9.45435C10.0455 9.3686 10.0179 9.29748 9.96232 9.24228C9.90697 9.18672 9.836 9.15895 9.74994 9.15895H5.08716V8.06941H8.22637C9.45736 8.06941 10.4621 7.69431 11.2409 6.94305C12.0195 6.19258 12.409 5.22314 12.409 4.03471C12.409 2.84706 12.0195 1.8776 11.2409 1.12636C10.4622 0.375861 9.45734 0 8.22637 0H3.24996C3.16369 0 3.09305 0.0277519 3.03755 0.0829754C2.98217 0.138505 2.95442 0.209605 2.95442 0.295383V6.10305H0.886356C0.800119 6.10305 0.729452 6.13223 0.673949 6.19069C0.618598 6.24917 0.59082 6.31841 0.59082 6.39841V7.77398C0.59082 7.86024 0.618419 7.9309 0.673949 7.98641C0.729478 8.04196 0.799966 8.06938 0.886356 8.06938H2.95457V9.15892H0.886356C0.800119 9.15892 0.729452 9.1867 0.673949 9.24225C0.618598 9.29745 0.59082 9.36842 0.59082 9.45433V10.6362C0.59082 10.7225 0.618419 10.7931 0.673949 10.8486C0.729452 10.9042 0.800094 10.9316 0.886356 10.9316ZM5.08716 1.96682H8.04171C8.6941 1.96682 9.22029 2.15756 9.62051 2.53919C10.0205 2.92083 10.2206 3.41958 10.2206 4.03486C10.2206 4.65045 10.0205 5.14934 9.62051 5.53053C9.22029 5.91248 8.69407 6.10323 8.04171 6.10323H5.08716V1.96682Z" fill="#B1B1B1"/>
</svg>
