<svg width="16" height="16" viewBox="0 0 16 16" fill="none" xmlns="http://www.w3.org/2000/svg">
<g clip-path="url(#clip0_159_44)">
<path d="M1.09225 13.4543H3.63775V15.6364C3.63775 15.7426 3.67172 15.8295 3.74006 15.8974C3.80822 15.9658 3.89535 16 4.00149 16H5.89912C5.9976 16 6.08282 15.9658 6.1548 15.8974C6.22678 15.8295 6.26267 15.7426 6.26267 15.6364V13.4543H12.0013C12.1072 13.4543 12.1944 13.4206 12.2627 13.3522C12.331 13.2839 12.365 13.1969 12.365 13.0907V11.6361C12.365 11.5306 12.331 11.443 12.2627 11.3751C12.1946 11.3067 12.1072 11.2726 12.0013 11.2726H6.26248V9.93158H10.1261C11.6412 9.93158 12.8777 9.46992 13.8363 8.54529C14.7946 7.62163 15.2739 6.42849 15.2739 4.96579C15.2739 3.50407 14.7946 2.31089 13.8363 1.38629C12.8779 0.462599 11.6412 0 10.1261 0H4.0013C3.89513 0 3.80819 0.0341562 3.73987 0.102124C3.67172 0.170467 3.63756 0.257975 3.63756 0.363549V7.51145H1.09225C0.986114 7.51145 0.89914 7.54736 0.830827 7.61931C0.762703 7.69129 0.728516 7.77651 0.728516 7.87496V9.56797C0.728516 9.67414 0.762484 9.76111 0.830827 9.82943C0.899171 9.8978 0.985926 9.93155 1.09225 9.93155H3.63775V11.2725H1.09225C0.986114 11.2725 0.89914 11.3067 0.830827 11.3751C0.762703 11.443 0.728516 11.5304 0.728516 11.6361V13.0907C0.728516 13.1969 0.762484 13.2838 0.830827 13.3522C0.89914 13.4206 0.986083 13.4543 1.09225 13.4543ZM6.26248 2.4207H9.89884C10.7018 2.4207 11.3494 2.65546 11.842 3.12515C12.3343 3.59487 12.5806 4.20871 12.5806 4.96598C12.5806 5.72363 12.3343 6.33765 11.842 6.80681C11.3494 7.2769 10.7017 7.51167 9.89884 7.51167H6.26248V2.4207Z" fill="#B1B1B1"/>
</g>
<defs>
<clipPath id="clip0_159_44">
<rect width="16" height="16" fill="white"/>
</clipPath>
</defs>
</svg>
