<svg width="35" height="37" viewBox="0 0 35 37" fill="none" xmlns="http://www.w3.org/2000/svg">
<path d="M1.52327 31.1131H7.40974V36.1592C7.40974 36.4047 7.48829 36.6057 7.64633 36.7628C7.80394 36.9209 8.00543 37 8.25088 37H12.6391C12.8669 37 13.064 36.9209 13.2304 36.7628C13.3969 36.6057 13.4799 36.4047 13.4799 36.1592V31.1131H26.7504C26.9953 31.1131 27.1969 31.0351 27.3549 30.8769C27.513 30.719 27.5915 30.5178 27.5915 30.2723V26.9085C27.5915 26.6645 27.513 26.462 27.3549 26.3049C27.1973 26.1468 26.9953 26.0678 26.7504 26.0678H13.4794V22.9668H22.4141C25.9177 22.9668 28.7772 21.8992 30.994 19.761C33.2099 17.625 34.3184 14.8659 34.3184 11.4834C34.3184 8.10316 33.2099 5.34394 30.994 3.2058C28.7776 1.06976 25.9176 0 22.4141 0H8.25044C8.00493 0 7.80387 0.0789862 7.6459 0.236161C7.48829 0.394206 7.4093 0.596567 7.4093 0.840706V17.3702H1.52327C1.27783 17.3702 1.0767 17.4533 0.918725 17.6197C0.761188 17.7861 0.682129 17.9832 0.682129 18.2109V22.1259C0.682129 22.3714 0.76068 22.5726 0.918725 22.7305C1.07677 22.8887 1.27739 22.9667 1.52327 22.9667H7.40974V26.0677H1.52327C1.27783 26.0677 1.0767 26.1468 0.918725 26.3049C0.761188 26.462 0.682129 26.664 0.682129 26.9085V30.2722C0.682129 30.5178 0.76068 30.7189 0.918725 30.8769C1.0767 31.0351 1.27775 31.1131 1.52327 31.1131ZM13.4794 5.59787H21.8885C23.7453 5.59787 25.2429 6.14076 26.382 7.22691C27.5205 8.31314 28.09 9.73264 28.09 11.4838C28.09 13.2359 27.5205 14.6558 26.382 15.7407C25.2429 16.8278 23.7452 17.3707 21.8885 17.3707H13.4794V5.59787Z" fill="black"/>
</svg>
