<svg width="19" height="19" viewBox="0 0 19 19" fill="none" xmlns="http://www.w3.org/2000/svg">
<g clip-path="url(#clip0_51_31)">
<path d="M1.29571 15.977H4.31849V18.5682C4.31849 18.6943 4.35882 18.7975 4.43998 18.8782C4.52092 18.9594 4.62438 19 4.75042 19H7.00386C7.12081 19 7.22201 18.9594 7.30748 18.8782C7.39296 18.7975 7.43557 18.6943 7.43557 18.5682V15.977H14.2502C14.376 15.977 14.4795 15.9369 14.5606 15.8557C14.6418 15.7746 14.6821 15.6713 14.6821 15.5452V13.8179C14.6821 13.6926 14.6418 13.5886 14.5606 13.5079C14.4797 13.4268 14.376 13.3862 14.2502 13.3862H7.43535V11.7938H12.0234C13.8226 11.7938 15.291 11.2455 16.4293 10.1475C17.5672 9.05069 18.1364 7.63383 18.1364 5.89688C18.1364 4.16108 17.5672 2.74418 16.4293 1.64622C15.2912 0.549336 13.8225 0 12.0234 0H4.7502C4.62412 0 4.52088 0.0405605 4.43976 0.121272C4.35882 0.20243 4.31826 0.306345 4.31826 0.431714V8.91984H1.29571C1.16967 8.91984 1.06639 8.96249 0.985265 9.04793C0.904367 9.13341 0.86377 9.23461 0.86377 9.35152V11.362C0.86377 11.488 0.904107 11.5913 0.985265 11.6724C1.06642 11.7536 1.16944 11.7937 1.29571 11.7937H4.31849V13.3861H1.29571C1.16967 13.3861 1.06639 13.4267 0.985265 13.5079C0.904367 13.5886 0.86377 13.6923 0.86377 13.8179V15.5452C0.86377 15.6713 0.904107 15.7746 0.985265 15.8557C1.06639 15.9369 1.16963 15.977 1.29571 15.977ZM7.43535 2.87458H11.7535C12.707 2.87458 13.4761 3.15336 14.061 3.71112C14.6457 4.26891 14.9381 4.99784 14.9381 5.8971C14.9381 6.79681 14.6457 7.52596 14.061 8.08308C13.4761 8.64132 12.707 8.9201 11.7535 8.9201H7.43535V2.87458Z" fill="#B1B1B1"/>
</g>
<defs>
<clipPath id="clip0_51_31">
<rect width="19" height="19" fill="white"/>
</clipPath>
</defs>
</svg>
