<svg width="14" height="14" viewBox="0 0 14 14" fill="none" xmlns="http://www.w3.org/2000/svg">
<path d="M0.954744 11.7725H3.18206V13.6819C3.18206 13.7748 3.21178 13.8508 3.27158 13.9103C3.33121 13.9701 3.40745 14 3.50033 14H5.16075C5.24693 14 5.32149 13.9701 5.38448 13.9103C5.44746 13.8508 5.47886 13.7747 5.47886 13.6819V11.7725H10.5001C10.5928 11.7725 10.6691 11.743 10.7289 11.6832C10.7887 11.6234 10.8184 11.5473 10.8184 11.4544V10.1816C10.8184 10.0893 10.7887 10.0127 10.7289 9.95322C10.6693 9.89339 10.5928 9.86348 10.5001 9.86348H5.47869V8.69013H8.85937C10.1851 8.69013 11.267 8.28618 12.1058 7.47713C12.9443 6.66893 13.3637 5.62492 13.3637 4.34507C13.3637 3.06606 12.9443 2.02203 12.1058 1.213C11.2672 0.404774 10.185 0 8.85937 0H3.50016C3.40726 0 3.33119 0.0298867 3.27141 0.0893581C3.21178 0.149159 3.18189 0.225728 3.18189 0.318105V6.57252H0.954744C0.861873 6.57252 0.785771 6.60394 0.725997 6.6669C0.666389 6.72988 0.636475 6.80445 0.636475 6.89059V8.37197C0.636475 8.46487 0.666197 8.54097 0.725997 8.60075C0.785798 8.66058 0.861709 8.69011 0.954744 8.69011H3.18206V9.86345H0.954744C0.861873 9.86345 0.785771 9.89337 0.725997 9.9532C0.666389 10.0126 0.636475 10.0891 0.636475 10.1816V11.4544C0.636475 11.5473 0.666197 11.6234 0.725997 11.6831C0.785771 11.743 0.861846 11.7725 0.954744 11.7725ZM5.47869 2.11811H8.66051C9.36308 2.11811 9.92975 2.32353 10.3608 2.73451C10.7915 3.14551 11.007 3.68262 11.007 4.34523C11.007 5.00817 10.7915 5.54545 10.3608 5.95596C9.92975 6.36729 9.36305 6.57271 8.66051 6.57271H5.47869V2.11811Z" fill="black"/>
</svg>
