<svg width="17" height="17" viewBox="0 0 17 17" fill="none" xmlns="http://www.w3.org/2000/svg">
<path d="M8.35573 0.523438C5.3011 0.523438 2.81592 3.00861 2.81592 6.06324C2.81592 9.90257 8.36118 16.4609 8.36118 16.4609C8.36118 16.4609 13.8955 9.71376 13.8955 6.06324C13.8955 3.00861 11.4105 0.523438 8.35573 0.523438ZM10.0272 7.68529C9.56632 8.14608 8.96107 8.37653 8.35573 8.37653C7.75049 8.37653 7.14505 8.14608 6.68435 7.68529C5.76267 6.76371 5.76267 5.26412 6.68435 4.34244C7.13065 3.89595 7.72432 3.65004 8.35573 3.65004C8.98714 3.65004 9.58072 3.89605 10.0272 4.34244C10.9489 5.26412 10.9489 6.76371 10.0272 7.68529Z" fill="#4C858B"/>
</svg>
