<svg width="8" height="12" viewBox="0 0 8 12" fill="none" xmlns="http://www.w3.org/2000/svg">
<path d="M7.33333 5.53176L1.99318 0.191706C1.86967 0.068097 1.70479 0 1.52899 0C1.35319 0 1.18831 0.068097 1.0648 0.191706L0.671535 0.584873C0.415635 0.841066 0.415635 1.25745 0.671535 1.51326L5.15579 5.99751L0.666559 10.4867C0.543048 10.6104 0.474854 10.7751 0.474854 10.9508C0.474854 11.1267 0.543048 11.2915 0.666559 11.4152L1.05982 11.8083C1.18343 11.9319 1.34821 12 1.52402 12C1.69982 12 1.8647 11.9319 1.98821 11.8083L7.33333 6.46336C7.45714 6.33936 7.52514 6.1738 7.52475 5.99781C7.52514 5.82112 7.45714 5.65566 7.33333 5.53176Z" fill="black"/>
</svg>
