<svg width="1157" height="407" viewBox="0 0 1157 407" fill="none" xmlns="http://www.w3.org/2000/svg">
<path fill-rule="evenodd" clip-rule="evenodd" d="M763.78 401.147C868.535 430.606 919.507 317.557 1009.26 326.158C1058.39 330.866 1156.33 354.728 1156.11 180.903C1155.56 68.6821 1052.12 40.5802 945.459 98.1319C914.072 110.407 889.291 106.602 862.386 94.4064C835.481 82.2103 800.878 27.7639 735.661 16.5628C539.402 -17.1447 371.477 290.826 763.78 401.147Z" fill="#EA6628"/>
<path fill-rule="evenodd" clip-rule="evenodd" d="M178.116 402.317C256.585 424.408 294.767 339.634 362.001 346.084C398.805 349.614 472.164 367.508 472 237.159C471.59 153.005 394.108 131.932 314.208 175.09C290.696 184.294 272.133 181.442 251.979 172.296C231.825 163.15 205.905 122.321 157.053 113.922C10.0393 88.6449 -115.749 319.588 178.116 402.317Z" fill="#EA6628"/>
<path d="M66.1201 355.542C67.2909 355.542 68.2401 354.593 68.2401 353.422C68.2401 352.251 67.2909 351.302 66.1201 351.302C64.9492 351.302 64 352.251 64 353.422C64 354.593 64.9492 355.542 66.1201 355.542Z" fill="black"/>
<path d="M79.5744 355.542C80.7453 355.542 81.6945 354.593 81.6945 353.422C81.6945 352.251 80.7453 351.302 79.5744 351.302C78.4035 351.302 77.4543 352.251 77.4543 353.422C77.4543 354.593 78.4035 355.542 79.5744 355.542Z" fill="black"/>
<path d="M93.0288 355.542C94.1996 355.542 95.1488 354.593 95.1488 353.422C95.1488 352.251 94.1996 351.302 93.0288 351.302C91.8579 351.302 90.9087 352.251 90.9087 353.422C90.9087 354.593 91.8579 355.542 93.0288 355.542Z" fill="black"/>
<path d="M66.1201 339.682C67.2909 339.682 68.2401 338.732 68.2401 337.561C68.2401 336.391 67.2909 335.441 66.1201 335.441C64.9492 335.441 64 336.391 64 337.561C64 338.732 64.9492 339.682 66.1201 339.682Z" fill="black"/>
<path d="M79.5744 339.682C80.7453 339.682 81.6945 338.732 81.6945 337.561C81.6945 336.391 80.7453 335.441 79.5744 335.441C78.4035 335.441 77.4543 336.391 77.4543 337.561C77.4543 338.732 78.4035 339.682 79.5744 339.682Z" fill="black"/>
<path d="M93.0288 339.682C94.1996 339.682 95.1488 338.732 95.1488 337.561C95.1488 336.391 94.1996 335.441 93.0288 335.441C91.8579 335.441 90.9087 336.391 90.9087 337.561C90.9087 338.732 91.8579 339.682 93.0288 339.682Z" fill="black"/>
<path d="M66.1201 325.82C67.2909 325.82 68.2401 324.871 68.2401 323.7C68.2401 322.529 67.2909 321.58 66.1201 321.58C64.9492 321.58 64 322.529 64 323.7C64 324.871 64.9492 325.82 66.1201 325.82Z" fill="black"/>
<path d="M79.5744 325.82C80.7453 325.82 81.6945 324.871 81.6945 323.7C81.6945 322.529 80.7453 321.58 79.5744 321.58C78.4035 321.58 77.4543 322.529 77.4543 323.7C77.4543 324.871 78.4035 325.82 79.5744 325.82Z" fill="black"/>
<path d="M93.0288 325.82C94.1996 325.82 95.1488 324.871 95.1488 323.7C95.1488 322.529 94.1996 321.58 93.0288 321.58C91.8579 321.58 90.9087 322.529 90.9087 323.7C90.9087 324.871 91.8579 325.82 93.0288 325.82Z" fill="black"/>
<path d="M66.1201 401.542C67.2909 401.542 68.2401 400.593 68.2401 399.422C68.2401 398.251 67.2909 397.302 66.1201 397.302C64.9492 397.302 64 398.251 64 399.422C64 400.593 64.9492 401.542 66.1201 401.542Z" fill="black"/>
<path d="M79.5744 401.542C80.7453 401.542 81.6945 400.593 81.6945 399.422C81.6945 398.251 80.7453 397.302 79.5744 397.302C78.4035 397.302 77.4543 398.251 77.4543 399.422C77.4543 400.593 78.4035 401.542 79.5744 401.542Z" fill="black"/>
<path d="M93.0288 401.542C94.1996 401.542 95.1488 400.593 95.1488 399.422C95.1488 398.251 94.1996 397.302 93.0288 397.302C91.8579 397.302 90.9087 398.251 90.9087 399.422C90.9087 400.593 91.8579 401.542 93.0288 401.542Z" fill="black"/>
<path d="M66.1201 385.682C67.2909 385.682 68.2401 384.732 68.2401 383.561C68.2401 382.391 67.2909 381.441 66.1201 381.441C64.9492 381.441 64 382.391 64 383.561C64 384.732 64.9492 385.682 66.1201 385.682Z" fill="black"/>
<path d="M79.5744 385.682C80.7453 385.682 81.6945 384.732 81.6945 383.561C81.6945 382.391 80.7453 381.441 79.5744 381.441C78.4035 381.441 77.4543 382.391 77.4543 383.561C77.4543 384.732 78.4035 385.682 79.5744 385.682Z" fill="black"/>
<path d="M93.0288 385.682C94.1996 385.682 95.1488 384.732 95.1488 383.561C95.1488 382.391 94.1996 381.441 93.0288 381.441C91.8579 381.441 90.9087 382.391 90.9087 383.561C90.9087 384.732 91.8579 385.682 93.0288 385.682Z" fill="black"/>
<path d="M66.1201 371.82C67.2909 371.82 68.2401 370.871 68.2401 369.7C68.2401 368.529 67.2909 367.58 66.1201 367.58C64.9492 367.58 64 368.529 64 369.7C64 370.871 64.9492 371.82 66.1201 371.82Z" fill="black"/>
<path d="M79.5744 371.82C80.7453 371.82 81.6945 370.871 81.6945 369.7C81.6945 368.529 80.7453 367.58 79.5744 367.58C78.4035 367.58 77.4543 368.529 77.4543 369.7C77.4543 370.871 78.4035 371.82 79.5744 371.82Z" fill="black"/>
<path d="M93.0288 371.82C94.1996 371.82 95.1488 370.871 95.1488 369.7C95.1488 368.529 94.1996 367.58 93.0288 367.58C91.8579 367.58 90.9087 368.529 90.9087 369.7C90.9087 370.871 91.8579 371.82 93.0288 371.82Z" fill="black"/>
<path d="M66.1201 309.96C67.2909 309.96 68.2401 309.011 68.2401 307.84C68.2401 306.669 67.2909 305.72 66.1201 305.72C64.9492 305.72 64 306.669 64 307.84C64 309.011 64.9492 309.96 66.1201 309.96Z" fill="black"/>
<path d="M79.5744 309.96C80.7453 309.96 81.6945 309.011 81.6945 307.84C81.6945 306.669 80.7453 305.72 79.5744 305.72C78.4035 305.72 77.4543 306.669 77.4543 307.84C77.4543 309.011 78.4035 309.96 79.5744 309.96Z" fill="black"/>
<path d="M93.0288 309.96C94.1996 309.96 95.1488 309.011 95.1488 307.84C95.1488 306.669 94.1996 305.72 93.0288 305.72C91.8579 305.72 90.9087 306.669 90.9087 307.84C90.9087 309.011 91.8579 309.96 93.0288 309.96Z" fill="black"/>
<path d="M66.1201 294.1C67.2909 294.1 68.2401 293.151 68.2401 291.98C68.2401 290.809 67.2909 289.86 66.1201 289.86C64.9492 289.86 64 290.809 64 291.98C64 293.151 64.9492 294.1 66.1201 294.1Z" fill="black"/>
<path d="M79.5744 294.1C80.7453 294.1 81.6945 293.151 81.6945 291.98C81.6945 290.809 80.7453 289.86 79.5744 289.86C78.4035 289.86 77.4543 290.809 77.4543 291.98C77.4543 293.151 78.4035 294.1 79.5744 294.1Z" fill="black"/>
<path d="M93.0288 294.1C94.1996 294.1 95.1488 293.151 95.1488 291.98C95.1488 290.809 94.1996 289.86 93.0288 289.86C91.8579 289.86 90.9087 290.809 90.9087 291.98C90.9087 293.151 91.8579 294.1 93.0288 294.1Z" fill="black"/>
<path d="M66.1201 278.24C67.2909 278.24 68.2401 277.291 68.2401 276.12C68.2401 274.949 67.2909 274 66.1201 274C64.9492 274 64 274.949 64 276.12C64 277.291 64.9492 278.24 66.1201 278.24Z" fill="black"/>
<path d="M79.5744 278.24C80.7453 278.24 81.6945 277.291 81.6945 276.12C81.6945 274.949 80.7453 274 79.5744 274C78.4035 274 77.4543 274.949 77.4543 276.12C77.4543 277.291 78.4035 278.24 79.5744 278.24Z" fill="black"/>
<path d="M93.0288 278.24C94.1996 278.24 95.1488 277.291 95.1488 276.12C95.1488 274.949 94.1996 274 93.0288 274C91.8579 274 90.9087 274.949 90.9087 276.12C90.9087 277.291 91.8579 278.24 93.0288 278.24Z" fill="black"/>
<path d="M1050.16 81.5419C1051.33 81.5419 1052.28 80.5927 1052.28 79.4218C1052.28 78.251 1051.33 77.3018 1050.16 77.3018C1048.99 77.3018 1048.04 78.251 1048.04 79.4218C1048.04 80.5927 1048.99 81.5419 1050.16 81.5419Z" fill="black"/>
<path d="M1063.61 81.5419C1064.78 81.5419 1065.73 80.5927 1065.73 79.4218C1065.73 78.251 1064.78 77.3018 1063.61 77.3018C1062.44 77.3018 1061.49 78.251 1061.49 79.4218C1061.49 80.5927 1062.44 81.5419 1063.61 81.5419Z" fill="black"/>
<path d="M1077.07 81.5419C1078.24 81.5419 1079.19 80.5927 1079.19 79.4218C1079.19 78.251 1078.24 77.3018 1077.07 77.3018C1075.9 77.3018 1074.95 78.251 1074.95 79.4218C1074.95 80.5927 1075.9 81.5419 1077.07 81.5419Z" fill="black"/>
<path d="M1050.16 65.6816C1051.33 65.6816 1052.28 64.7324 1052.28 63.5615C1052.28 62.3906 1051.33 61.4414 1050.16 61.4414C1048.99 61.4414 1048.04 62.3906 1048.04 63.5615C1048.04 64.7324 1048.99 65.6816 1050.16 65.6816Z" fill="black"/>
<path d="M1063.61 65.6816C1064.78 65.6816 1065.73 64.7324 1065.73 63.5615C1065.73 62.3906 1064.78 61.4414 1063.61 61.4414C1062.44 61.4414 1061.49 62.3906 1061.49 63.5615C1061.49 64.7324 1062.44 65.6816 1063.61 65.6816Z" fill="black"/>
<path d="M1077.07 65.6816C1078.24 65.6816 1079.19 64.7324 1079.19 63.5615C1079.19 62.3906 1078.24 61.4414 1077.07 61.4414C1075.9 61.4414 1074.95 62.3906 1074.95 63.5615C1074.95 64.7324 1075.9 65.6816 1077.07 65.6816Z" fill="black"/>
<path d="M1050.16 51.8197C1051.33 51.8197 1052.28 50.8706 1052.28 49.6997C1052.28 48.5288 1051.33 47.5796 1050.16 47.5796C1048.99 47.5796 1048.04 48.5288 1048.04 49.6997C1048.04 50.8706 1048.99 51.8197 1050.16 51.8197Z" fill="black"/>
<path d="M1063.61 51.8197C1064.78 51.8197 1065.73 50.8706 1065.73 49.6997C1065.73 48.5288 1064.78 47.5796 1063.61 47.5796C1062.44 47.5796 1061.49 48.5288 1061.49 49.6997C1061.49 50.8706 1062.44 51.8197 1063.61 51.8197Z" fill="black"/>
<path d="M1077.07 51.8197C1078.24 51.8197 1079.19 50.8706 1079.19 49.6997C1079.19 48.5288 1078.24 47.5796 1077.07 47.5796C1075.9 47.5796 1074.95 48.5288 1074.95 49.6997C1074.95 50.8706 1075.9 51.8197 1077.07 51.8197Z" fill="black"/>
<path d="M1050.16 127.542C1051.33 127.542 1052.28 126.593 1052.28 125.422C1052.28 124.251 1051.33 123.302 1050.16 123.302C1048.99 123.302 1048.04 124.251 1048.04 125.422C1048.04 126.593 1048.99 127.542 1050.16 127.542Z" fill="black"/>
<path d="M1063.61 127.542C1064.78 127.542 1065.73 126.593 1065.73 125.422C1065.73 124.251 1064.78 123.302 1063.61 123.302C1062.44 123.302 1061.49 124.251 1061.49 125.422C1061.49 126.593 1062.44 127.542 1063.61 127.542Z" fill="black"/>
<path d="M1077.07 127.542C1078.24 127.542 1079.19 126.593 1079.19 125.422C1079.19 124.251 1078.24 123.302 1077.07 123.302C1075.9 123.302 1074.95 124.251 1074.95 125.422C1074.95 126.593 1075.9 127.542 1077.07 127.542Z" fill="black"/>
<path d="M1050.16 111.682C1051.33 111.682 1052.28 110.732 1052.28 109.561C1052.28 108.391 1051.33 107.441 1050.16 107.441C1048.99 107.441 1048.04 108.391 1048.04 109.561C1048.04 110.732 1048.99 111.682 1050.16 111.682Z" fill="black"/>
<path d="M1063.61 111.682C1064.78 111.682 1065.73 110.732 1065.73 109.561C1065.73 108.391 1064.78 107.441 1063.61 107.441C1062.44 107.441 1061.49 108.391 1061.49 109.561C1061.49 110.732 1062.44 111.682 1063.61 111.682Z" fill="black"/>
<path d="M1077.07 111.682C1078.24 111.682 1079.19 110.732 1079.19 109.561C1079.19 108.391 1078.24 107.441 1077.07 107.441C1075.9 107.441 1074.95 108.391 1074.95 109.561C1074.95 110.732 1075.9 111.682 1077.07 111.682Z" fill="black"/>
<path d="M1050.16 97.8197C1051.33 97.8197 1052.28 96.8706 1052.28 95.6997C1052.28 94.5288 1051.33 93.5796 1050.16 93.5796C1048.99 93.5796 1048.04 94.5288 1048.04 95.6997C1048.04 96.8706 1048.99 97.8197 1050.16 97.8197Z" fill="black"/>
<path d="M1063.61 97.8197C1064.78 97.8197 1065.73 96.8706 1065.73 95.6997C1065.73 94.5288 1064.78 93.5796 1063.61 93.5796C1062.44 93.5796 1061.49 94.5288 1061.49 95.6997C1061.49 96.8706 1062.44 97.8197 1063.61 97.8197Z" fill="black"/>
<path d="M1077.07 97.8197C1078.24 97.8197 1079.19 96.8706 1079.19 95.6997C1079.19 94.5288 1078.24 93.5796 1077.07 93.5796C1075.9 93.5796 1074.95 94.5288 1074.95 95.6997C1074.95 96.8706 1075.9 97.8197 1077.07 97.8197Z" fill="black"/>
<path d="M1050.16 35.9599C1051.33 35.9599 1052.28 35.0107 1052.28 33.8398C1052.28 32.6689 1051.33 31.7197 1050.16 31.7197C1048.99 31.7197 1048.04 32.6689 1048.04 33.8398C1048.04 35.0107 1048.99 35.9599 1050.16 35.9599Z" fill="black"/>
<path d="M1063.61 35.9599C1064.78 35.9599 1065.73 35.0107 1065.73 33.8398C1065.73 32.6689 1064.78 31.7197 1063.61 31.7197C1062.44 31.7197 1061.49 32.6689 1061.49 33.8398C1061.49 35.0107 1062.44 35.9599 1063.61 35.9599Z" fill="black"/>
<path d="M1077.07 35.9599C1078.24 35.9599 1079.19 35.0107 1079.19 33.8398C1079.19 32.6689 1078.24 31.7197 1077.07 31.7197C1075.9 31.7197 1074.95 32.6689 1074.95 33.8398C1074.95 35.0107 1075.9 35.9599 1077.07 35.9599Z" fill="black"/>
<path d="M1050.16 20.1C1051.33 20.1 1052.28 19.1508 1052.28 17.9799C1052.28 16.8091 1051.33 15.8599 1050.16 15.8599C1048.99 15.8599 1048.04 16.8091 1048.04 17.9799C1048.04 19.1508 1048.99 20.1 1050.16 20.1Z" fill="black"/>
<path d="M1063.61 20.1C1064.78 20.1 1065.73 19.1508 1065.73 17.9799C1065.73 16.8091 1064.78 15.8599 1063.61 15.8599C1062.44 15.8599 1061.49 16.8091 1061.49 17.9799C1061.49 19.1508 1062.44 20.1 1063.61 20.1Z" fill="black"/>
<path d="M1077.07 20.1C1078.24 20.1 1079.19 19.1508 1079.19 17.9799C1079.19 16.8091 1078.24 15.8599 1077.07 15.8599C1075.9 15.8599 1074.95 16.8091 1074.95 17.9799C1074.95 19.1508 1075.9 20.1 1077.07 20.1Z" fill="black"/>
<path d="M1050.16 4.24016C1051.33 4.24016 1052.28 3.29097 1052.28 2.12008C1052.28 0.949191 1051.33 0 1050.16 0C1048.99 0 1048.04 0.949191 1048.04 2.12008C1048.04 3.29097 1048.99 4.24016 1050.16 4.24016Z" fill="black"/>
<path d="M1063.61 4.24016C1064.78 4.24016 1065.73 3.29097 1065.73 2.12008C1065.73 0.949191 1064.78 0 1063.61 0C1062.44 0 1061.49 0.949191 1061.49 2.12008C1061.49 3.29097 1062.44 4.24016 1063.61 4.24016Z" fill="black"/>
<path d="M1077.07 4.24016C1078.24 4.24016 1079.19 3.29097 1079.19 2.12008C1079.19 0.949191 1078.24 0 1077.07 0C1075.9 0 1074.95 0.949191 1074.95 2.12008C1074.95 3.29097 1075.9 4.24016 1077.07 4.24016Z" fill="black"/>
</svg>
